<?xml version="1.0" standalone="no"?>
<!DOCTYPE svg PUBLIC "-//W3C//DTD SVG 20010904//EN"
 "http://www.w3.org/TR/2001/REC-SVG-20010904/DTD/svg10.dtd">
<svg version="1.0" xmlns="http://www.w3.org/2000/svg"
 width="1933.000000pt" height="1514.000000pt" viewBox="0 0 1933.000000 1514.000000"
 preserveAspectRatio="xMidYMid meet">

<g transform="translate(0.000000,1514.000000) scale(0.100000,-0.100000)"
fill="#000000" stroke="none">
<path d="M6478 15067 c-37 -29 -67 -55 -67 -60 -1 -4 53 -115 119 -247 l120
-240 33 14 c74 32 132 59 137 63 7 7 -254 523 -265 522 -5 0 -40 -23 -77 -52z"/>
<path d="M13783 14516 l-22 -34 27 -659 27 -658 28 -3 c24 -3 27 0 28 30 2 30
2 31 6 6 l4 -28 782 1 782 0 -495 134 c-272 74 -501 134 -507 135 -8 0 -13
-13 -13 -34 l0 -33 -77 -7 c-43 -4 -101 -9 -129 -13 l-51 -5 -7 83 c-4 46 -8
84 -9 86 -2 1 -68 20 -147 41 l-145 39 -5 -26 c-3 -14 -14 170 -24 409 -10
239 -22 465 -25 502 l-6 67 -22 -33z m84 -1153 c-2 -21 -4 -6 -4 32 0 39 2 55
4 38 2 -18 2 -50 0 -70z"/>
<path d="M9940 14380 c-60 -48 -160 -97 -323 -159 -256 -98 -281 -113 -447
-281 l-145 -147 -185 -93 c-102 -51 -206 -108 -231 -126 -105 -76 -105 -147 4
-495 38 -122 64 -303 53 -368 -5 -29 2 -51 34 -116 56 -112 74 -189 73 -315
-1 -166 -51 -324 -126 -401 -48 -48 -70 -122 -72 -244 -2 -119 -29 -255 -89
-445 -49 -153 -128 -349 -134 -332 -6 18 -72 15 -72 -2 0 -8 15 -67 34 -132
19 -65 33 -120 31 -122 -2 -2 -14 30 -26 72 l-22 76 -58 0 -57 0 -52 -64 -51
-65 31 -73 c78 -183 234 -445 369 -618 84 -109 283 -313 386 -398 103 -84 100
-82 92 -82 -14 0 -194 157 -284 248 -174 176 -353 419 -472 642 -75 140 -62
88 18 -75 79 -159 198 -345 306 -480 101 -126 329 -345 358 -345 26 0 265 18
347 25 30 3 152 6 271 5 l217 0 21 27 c12 16 18 20 15 11 -5 -15 2 -14 51 7
32 14 75 35 96 45 21 11 213 77 426 146 213 69 395 130 403 134 11 6 -44 37
-191 109 -235 113 -353 183 -455 270 -65 55 -75 68 -110 150 -32 76 -43 92
-67 101 -54 18 -57 16 -57 -57 0 -93 -8 -75 -11 24 l-2 83 188 2 187 3 48 53
c118 127 263 391 354 643 51 141 111 335 121 393 l8 38 -40 -43 -40 -43 -22
49 c-39 89 -83 120 -217 154 -161 41 -358 64 -559 65 -215 1 -289 -11 -433
-70 -106 -44 -133 -43 -202 3 -112 75 -221 209 -290 356 -149 319 -93 686 155
1011 23 30 24 35 9 47 -8 7 -27 36 -42 63 -34 68 -43 204 -18 271 20 52 78
107 132 126 62 22 304 16 594 -15 140 -15 317 -29 392 -31 149 -4 169 -10 244
-70 22 -19 58 -59 79 -89 l39 -56 25 24 26 25 22 -34 c27 -40 67 -134 82 -192
l12 -42 -62 -73 c-63 -76 -121 -168 -158 -252 -11 -27 -21 -51 -21 -53 0 -3
18 11 39 30 43 39 70 55 110 67 34 9 71 -4 71 -27 0 -40 19 7 29 73 7 47 27
106 59 175 67 141 139 323 152 383 10 45 8 53 -20 115 -42 90 -153 254 -161
238 -4 -6 -10 -34 -14 -61 -11 -81 -110 -336 -130 -336 -2 0 5 26 16 57 28 81
57 234 65 334 11 148 -27 331 -84 398 l-27 32 -140 -26 c-77 -14 -212 -41
-301 -60 -189 -41 -188 -41 -175 -17 16 29 43 177 39 215 l-3 35 -35 -28z
m-35 -2684 c98 -60 165 -77 310 -83 101 -4 144 -2 193 11 84 21 86 21 128 -16
52 -46 74 -99 74 -181 0 -87 -14 -142 -60 -242 -58 -128 -121 -174 -169 -126
-29 29 -46 66 -76 166 -15 50 -33 96 -41 104 -9 10 -43 16 -98 19 l-86 4 -86
-81 c-111 -105 -132 -116 -193 -101 -104 26 -234 118 -271 191 -49 94 -3 216
110 294 41 28 158 74 191 75 9 0 42 -15 74 -34z m-1360 -1271 c181 -272 369
-446 562 -522 61 -24 81 -27 198 -28 l131 0 76 38 c91 45 168 123 228 230 l40
72 0 -40 c0 -22 -8 -71 -16 -110 -9 -38 -16 -80 -16 -92 0 -13 -4 -21 -8 -18
-11 7 -22 -24 -13 -37 4 -7 1 -8 -7 -3 -10 6 -12 4 -7 -9 5 -11 3 -15 -5 -10
-8 5 -9 2 -5 -10 5 -11 3 -15 -5 -10 -8 5 -9 2 -5 -10 5 -11 3 -15 -5 -10 -8
5 -9 2 -5 -10 5 -11 3 -15 -5 -10 -8 5 -9 2 -5 -9 3 -9 1 -19 -5 -23 -7 -5 -8
-2 -3 6 6 9 4 11 -4 6 -7 -5 -10 -14 -7 -22 3 -7 0 -16 -6 -20 -7 -5 -8 -2 -3
7 8 12 6 12 -8 0 -20 -16 -23 -36 -4 -25 6 4 9 4 5 0 -3 -4 -8 -6 -10 -4 -2 2
-26 -17 -54 -41 -176 -157 -397 -117 -643 115 -72 67 -91 77 -91 45 0 -11 38
-56 93 -107 50 -48 70 -69 42 -47 -74 60 -232 227 -296 313 -144 193 -267 444
-320 653 -11 45 -22 91 -25 102 -3 11 27 -41 66 -115 39 -74 104 -184 145
-245z m-144 50 c53 -132 53 -134 40 -115 -12 16 -91 213 -91 226 0 15 9 -4 51
-111z m122 -265 c31 -58 66 -121 78 -140 21 -34 21 -34 0 -10 -22 28 -136 233
-146 265 -9 27 0 13 68 -115z m1314 68 c-3 -7 -5 -2 -5 12 0 14 2 19 5 13 2
-7 2 -19 0 -25z m160 -45 c-3 -10 -5 -4 -5 12 0 17 2 24 5 18 2 -7 2 -21 0
-30z m-170 -15 c-3 -8 -6 -5 -6 6 -1 11 2 17 5 13 3 -3 4 -12 1 -19z m-10 -50
c-3 -8 -6 -5 -6 6 -1 11 2 17 5 13 3 -3 4 -12 1 -19z m170 -10 c-3 -7 -5 -2
-5 12 0 14 2 19 5 13 2 -7 2 -19 0 -25z m-180 -30 c-3 -8 -6 -5 -6 6 -1 11 2
17 5 13 3 -3 4 -12 1 -19z m170 -30 c-3 -7 -5 -2 -5 12 0 14 2 19 5 13 2 -7 2
-19 0 -25z m-10 -50 c-3 -8 -6 -5 -6 6 -1 11 2 17 5 13 3 -3 4 -12 1 -19z
m-1259 -129 c39 -52 126 -149 194 -215 68 -65 103 -103 79 -84 -103 80 -307
310 -356 400 -15 27 10 -3 83 -101z m1249 79 c-3 -8 -6 -5 -6 6 -1 11 2 17 5
13 3 -3 4 -12 1 -19z m-30 -110 c-3 -8 -6 -5 -6 6 -1 11 2 17 5 13 3 -3 4 -12
1 -19z m-56 -155 c-12 -20 -14 -14 -5 12 4 9 9 14 11 11 3 -2 0 -13 -6 -23z
m-281 -47 c0 -2 -8 -10 -17 -17 -16 -13 -17 -12 -4 4 13 16 21 21 21 13z m240
-45 c-28 -56 -35 -52 -8 4 12 24 23 43 26 41 2 -2 -6 -22 -18 -45z m-779 22
c13 -16 12 -17 -3 -4 -10 7 -18 15 -18 17 0 8 8 3 21 -13z m40 -30 c13 -16 12
-17 -3 -4 -10 7 -18 15 -18 17 0 8 8 3 21 -13z m449 -6 c0 -1 -24 -25 -52 -52
l-53 -50 50 53 c46 48 55 57 55 49z m-350 -144 c3 -3 -6 0 -20 7 -34 18 -140
90 -140 95 0 5 150 -91 160 -102z m590 67 c-6 -11 -13 -20 -16 -20 -2 0 0 9 6
20 6 11 13 20 16 20 2 0 0 -9 -6 -20z m-360 -34 c0 -2 -8 -10 -17 -17 -16 -13
-17 -12 -4 4 13 16 21 21 21 13z"/>
<path d="M10063 11534 c68 -35 160 -57 208 -49 22 4 38 9 35 12 -5 5 -264 63
-281 62 -5 0 11 -11 38 -25z"/>
<path d="M16164 13973 c-212 -241 -230 -263 -217 -263 5 0 94 98 198 217 217
248 229 262 223 269 -3 2 -95 -98 -204 -223z"/>
<path d="M11617 13453 c80 -208 148 -386 152 -396 5 -13 64 58 248 297 l241
315 -51 11 c-149 32 -720 150 -727 150 -4 0 58 -170 137 -377z m230 287 c186
-39 348 -74 359 -78 20 -6 1 -34 -198 -292 -120 -157 -222 -286 -226 -287 -5
-2 -139 340 -279 715 -3 6 -3 12 1 12 3 0 157 -32 343 -70z"/>
<path d="M9852 13214 c-301 -73 -348 -89 -414 -136 -42 -31 -98 -103 -98 -126
0 -13 2 -13 18 1 26 24 99 52 182 72 52 12 136 19 273 23 l199 5 35 36 c33 34
108 173 101 189 -2 4 -135 -24 -296 -64z"/>
<path d="M6108 12543 c-1 -169 -4 -273 -5 -231 l-4 78 -197 2 -197 3 68 49
c37 28 67 54 67 59 0 8 -79 126 -101 151 -4 5 -58 -33 -121 -86 -62 -52 -118
-97 -124 -101 -6 -3 -64 39 -130 93 -65 55 -121 100 -124 100 -8 0 -110 -148
-110 -157 1 -5 31 -30 67 -58 l67 -50 -172 -3 -172 -2 0 -270 0 -270 343 0
c188 0 451 -2 584 -3 l242 -3 4 45 3 46 2 -47 c2 -44 4 -48 27 -48 23 0 25 4
25 43 0 23 9 224 19 447 l19 404 -30 53 c-16 29 -34 56 -39 59 -5 3 -10 -122
-11 -303z"/>
<path d="M10483 12684 c-20 -21 -49 -66 -64 -99 -31 -65 -67 -190 -58 -199 3
-3 25 0 50 8 24 8 61 17 81 19 l36 5 -10 -30 c-8 -21 -7 -33 1 -41 16 -16 14
-24 -9 -30 -15 -4 -20 -14 -20 -36 0 -40 -23 -41 -76 -5 -32 22 -36 23 -20 5
20 -22 103 -64 149 -75 22 -5 27 -3 27 11 1 10 9 43 20 73 11 30 19 72 20 94
0 38 0 38 36 34 l36 -4 -31 25 c-28 23 -33 36 -42 96 -10 75 -37 141 -69 170
-19 17 -21 17 -57 -21z"/>
<path d="M8263 12604 c4 -27 9 -77 13 -111 6 -62 7 -62 29 -47 16 10 25 29 29
59 10 61 26 72 77 52 38 -15 43 -15 65 0 33 21 28 31 -31 62 -36 18 -70 27
-119 30 l-69 3 6 -48z"/>
<path d="M9461 12598 c-11 -30 -24 -88 -19 -88 2 0 29 9 59 20 60 21 164 40
218 40 28 0 32 -3 25 -17 -4 -10 -8 -35 -8 -55 0 -21 -4 -38 -9 -38 -5 0 -7
-22 -5 -50 3 -55 5 -55 -87 -24 -21 7 -41 12 -42 10 -6 -6 102 -54 157 -70 80
-24 88 -22 96 22 4 20 13 51 20 67 6 17 15 56 19 88 l7 57 37 -6 36 -7 -35 29
c-19 16 -36 32 -38 37 -2 4 -98 7 -213 7 -208 0 -210 0 -218 -22z"/>
<path d="M7574 12428 c35 -77 146 -300 152 -307 2 -2 6 -2 10 1 6 7 -178 378
-188 378 -4 0 8 -33 26 -72z"/>
<path d="M8542 12467 c-44 -46 -74 -121 -80 -199 -4 -52 -2 -68 9 -68 22 0 89
52 89 69 0 32 25 53 63 54 32 1 36 4 31 21 -13 40 -62 144 -71 149 -6 4 -24
-8 -41 -26z"/>
<path d="M18752 12299 c-103 -52 -130 -190 -56 -279 68 -80 181 -88 261 -17
89 78 83 210 -13 283 -50 38 -132 44 -192 13z"/>
<path d="M12904 11982 l-132 -77 44 -87 c24 -47 47 -89 52 -92 10 -6 235 130
240 145 4 9 -55 167 -67 181 -3 3 -65 -28 -137 -70z"/>
<path d="M9970 11941 c0 -16 56 -51 82 -51 12 0 61 -14 108 -30 120 -42 178
-41 256 6 93 55 94 59 15 56 -38 -2 -117 4 -175 12 -117 18 -286 21 -286 7z"/>
<path d="M5622 11419 c-29 -50 -66 -73 -153 -94 -69 -17 -74 -22 -63 -62 6
-21 8 -21 46 -7 81 28 78 31 135 -143 l52 -158 -5 165 c-3 91 -1 203 4 250 5
47 9 86 8 87 -1 1 -12 -16 -24 -38z"/>
<path d="M15330 11386 l-3175 -22 -55 -25 c-70 -32 -117 -79 -148 -148 -22
-48 -25 -67 -24 -160 3 -185 121 -3559 130 -3716 7 -122 13 -158 30 -191 32
-62 65 -97 124 -129 l53 -30 3355 -3 c3755 -2 3416 -9 3508 73 69 62 94 124
99 245 2 52 24 946 48 1986 43 1788 44 1895 28 1943 -21 65 -81 134 -147 169
l-51 27 -300 1 c-165 1 -1729 -8 -3475 -20z m3826 -23 c59 -31 112 -97 131
-163 18 -64 22 147 -37 -2324 -26 -1091 -44 -1682 -51 -1707 -18 -60 -78 -130
-138 -161 l-53 -28 -3362 0 -3361 0 -50 24 c-56 26 -117 87 -141 143 -14 33
-25 283 -80 1813 -34 976 -64 1866 -65 1977 -2 201 -2 202 25 257 32 65 93
117 164 140 51 15 326 19 2932 32 657 4 1638 10 2180 14 542 4 1183 7 1425 6
434 -1 441 -1 481 -23z"/>
<path d="M1240 10701 c-7 -183 -16 -327 -20 -321 -5 8 -50 0 -149 -27 -121
-33 -144 -43 -154 -64 -12 -22 -19 -24 -112 -29 -84 -4 -145 -17 -375 -80
l-275 -75 545 -5 c300 -3 546 -5 548 -4 1 0 9 167 17 370 8 203 16 404 19 447
3 63 1 81 -13 99 -17 20 -18 7 -31 -311z m-23 -518 c-2 -21 -4 -6 -4 32 0 39
2 55 4 38 2 -18 2 -50 0 -70z"/>
<path d="M6771 10972 c-40 -21 -71 -73 -71 -117 0 -64 63 -125 130 -125 67 0
130 61 130 125 0 67 -66 135 -130 135 -14 0 -41 -8 -59 -18z"/>
<path d="M7830 10504 c-207 -97 -689 -306 -802 -349 -27 -10 -48 -21 -48 -25
0 -4 168 -68 373 -142 l372 -135 6 41 6 41 1 -45 2 -45 68 -24 c37 -13 73 -26
80 -29 7 -2 12 5 13 19 l1 24 7 -25 c6 -23 41 -37 356 -152 193 -70 401 -145
463 -167 l113 -41 -58 52 c-183 163 -356 376 -488 601 -78 134 -157 304 -151
325 3 9 1 24 -5 32 -8 12 -9 9 -4 -10 5 -22 4 -23 -5 -7 -7 10 -9 25 -6 33 4
10 2 12 -6 8 -8 -5 -9 -2 -5 10 4 9 3 15 -1 12 -5 -3 -16 19 -26 49 -9 30 -20
55 -24 54 -4 0 -108 -47 -232 -105z m-9 -145 c-5 -13 -10 -19 -10 -12 -1 15
10 45 15 40 3 -2 0 -15 -5 -28z m16 -91 c-2 -18 -4 -4 -4 32 0 36 2 50 4 33 2
-18 2 -48 0 -65z m-40 10 c-3 -8 -6 -5 -6 6 -1 11 2 17 5 13 3 -3 4 -12 1 -19z
m-10 -40 c-3 -8 -6 -5 -6 6 -1 11 2 17 5 13 3 -3 4 -12 1 -19z m-10 -40 c-3
-8 -6 -5 -6 6 -1 11 2 17 5 13 3 -3 4 -12 1 -19z m70 -45 c-3 -10 -5 -2 -5 17
0 19 2 27 5 18 2 -10 2 -26 0 -35z m-80 -15 c-3 -7 -5 -2 -5 12 0 14 2 19 5
13 2 -7 2 -19 0 -25z m-10 -55 c-3 -10 -5 -4 -5 12 0 17 2 24 5 18 2 -7 2 -21
0 -30z m100 -10 c-3 -10 -5 -4 -5 12 0 17 2 24 5 18 2 -7 2 -21 0 -30z m-110
-75 c-2 -13 -4 -5 -4 17 -1 22 1 32 4 23 2 -10 2 -28 0 -40z m120 5 c-3 -10
-5 -4 -5 12 0 17 2 24 5 18 2 -7 2 -21 0 -30z m10 -60 c-3 -10 -5 -4 -5 12 0
17 2 24 5 18 2 -7 2 -21 0 -30z m10 -55 c-3 -7 -5 -2 -5 12 0 14 2 19 5 13 2
-7 2 -19 0 -25z m10 -40 c-3 -8 -6 -5 -6 6 -1 11 2 17 5 13 3 -3 4 -12 1 -19z"/>
<path d="M6231 9705 c-1 -66 -6 -261 -11 -434 -11 -361 -19 -322 89 -434 59
-62 150 -137 164 -137 4 0 -7 30 -23 68 -117 276 -196 619 -210 907 l-7 150
-2 -120z"/>
<path d="M10860 9773 c19 -15 97 -77 175 -137 282 -219 517 -437 531 -491 6
-25 -22 -85 -112 -242 -111 -193 -349 -523 -365 -505 -3 4 -19 50 -35 102
l-29 95 -6 -130 c-3 -71 -17 -238 -31 -370 -14 -132 -27 -249 -27 -260 -4 -61
-19 -197 -31 -287 -7 -51 -19 -82 -41 -115 -38 -54 -37 -61 22 -259 75 -251
240 -664 252 -632 3 7 6 2 6 -12 1 -14 25 -72 55 -130 l53 -105 115 -3 115 -3
2 137 c1 165 21 296 67 452 19 64 46 156 59 204 79 285 193 501 351 670 24 26
44 53 44 60 0 8 -19 32 -41 53 -53 51 -113 142 -139 213 -26 70 -102 424 -175
821 -31 166 -63 321 -72 342 -19 49 -157 162 -388 318 -226 153 -439 281 -355
214z m257 -2025 c-2 -13 -4 -5 -4 17 -1 22 1 32 4 23 2 -10 2 -28 0 -40z m10
-280 c-2 -18 -4 -4 -4 32 0 36 2 50 4 33 2 -18 2 -48 0 -65z m10 -265 c-2 -21
-4 -4 -4 37 0 41 2 58 4 38 2 -21 2 -55 0 -75z m10 -280 c-2 -27 -3 -5 -3 47
0 52 1 74 3 48 2 -27 2 -69 0 -95z m10 -265 c-2 -29 -3 -6 -3 52 0 58 1 81 3
53 2 -29 2 -77 0 -105z"/>
<path d="M5514 9575 c-10 -26 1 -35 13 -10 6 14 7 25 2 25 -5 0 -12 -7 -15
-15z"/>
<path d="M3315 9199 c-22 -10 -44 -20 -48 -22 -5 -1 41 -93 102 -203 109 -198
110 -201 100 -240 -15 -53 -34 -90 -80 -151 l-40 -53 -68 0 c-71 0 -190 30
-209 53 -6 6 -45 102 -87 212 -43 110 -79 202 -81 204 -1 2 -23 -5 -48 -14
-53 -21 -58 -32 -77 -185 -13 -110 -5 -232 22 -340 17 -70 23 -79 80 -133 86
-80 172 -119 272 -125 44 -3 74 -8 69 -11 -7 -4 8 -39 37 -90 l48 -83 6 39
c13 78 98 163 202 202 78 29 142 35 192 18 l42 -14 -21 51 c-11 28 -24 61 -29
74 -6 15 -13 20 -21 15 -7 -4 -38 -24 -68 -44 -62 -41 -183 -103 -220 -113
-14 -4 17 13 68 38 260 127 334 223 336 441 l1 100 -41 60 c-78 113 -210 230
-344 303 l-55 30 -40 -19z m35 -969 c-8 -5 -22 -9 -30 -9 -10 0 -8 3 5 9 27
12 43 12 25 0z m-83 -26 c-3 -3 -12 -4 -19 -1 -8 3 -5 6 6 6 11 1 17 -2 13 -5z"/>
<path d="M1210 8863 c0 -5 24 -21 53 -35 28 -15 111 -59 184 -97 73 -39 134
-67 137 -63 2 4 -77 50 -177 102 -213 112 -197 104 -197 93z"/>
<path d="M5875 8815 c18 -165 25 -313 19 -407 l-7 -108 47 0 46 0 0 68 c0 117
-52 371 -95 463 l-15 34 5 -50z"/>
<path d="M7680 8322 l0 -309 413 -7 c828 -13 1839 -56 2497 -105 63 -5 116 -8
116 -7 1 0 9 102 18 226 9 124 18 248 22 276 l5 51 -38 6 c-65 11 -517 56
-763 77 -664 55 -1579 99 -2087 100 l-183 0 0 -308z m290 143 c35 -18 68 -63
76 -104 6 -30 5 -31 -28 -31 -26 0 -39 7 -56 30 -28 38 -64 39 -97 5 l-23 -26
-21 30 c-27 37 -27 42 7 73 44 41 92 49 142 23z m252 -5 c64 0 72 -3 99 -29
23 -23 29 -38 29 -71 0 -52 -21 -93 -55 -108 l-26 -12 33 -45 c70 -96 69 -88
8 -80 -30 4 -58 10 -62 14 -3 3 -42 52 -85 108 l-78 103 3 66 4 66 30 -6 c17
-3 62 -6 100 -6z m420 -193 l77 -172 -30 -3 c-17 -2 -36 -1 -43 1 -6 3 -38 64
-70 136 l-59 132 18 39 c10 22 21 40 24 40 3 0 41 -78 83 -173z m336 157 c15
-3 22 -12 22 -28 0 -48 -9 -56 -61 -56 l-49 0 0 -62 -1 -63 -29 35 c-17 19
-33 46 -37 60 -8 32 -20 40 -65 40 l-38 0 0 44 0 44 118 -4 c64 -3 127 -7 140
-10z m205 -14 l77 0 0 -45 0 -45 -70 0 c-38 0 -70 -4 -70 -8 0 -21 29 -32 82
-32 l58 0 0 -32 c0 -56 -10 -62 -86 -54 -37 4 -70 9 -74 11 -4 3 -23 28 -42
57 -32 48 -35 58 -30 107 l4 53 37 -6 c20 -3 71 -6 114 -6z m319 -22 c35 -13
62 -69 54 -113 -8 -38 -41 -85 -62 -85 -23 0 -17 -17 27 -76 23 -30 40 -57 37
-59 -3 -3 -28 -2 -56 2 -50 8 -51 9 -131 115 -80 106 -81 108 -81 166 0 32 2
61 6 64 8 9 176 -2 206 -14z m179 -79 l62 -82 44 49 c24 27 51 59 59 72 34 47
39 28 36 -140 -2 -90 -7 -167 -12 -172 -4 -4 -23 -5 -40 -1 l-33 7 6 72 6 71
-31 -37 c-16 -21 -34 -38 -38 -38 -4 0 -37 39 -72 88 -63 85 -64 88 -60 140 2
28 6 52 8 52 1 0 31 -37 65 -81z m-1832 -31 c19 -61 65 -75 107 -33 17 17 36
25 61 25 33 0 35 -1 28 -27 -17 -71 -82 -119 -148 -110 -86 12 -147 126 -120
226 l6 24 28 -34 c15 -18 32 -50 38 -71z m2323 -81 l77 -172 -30 -3 c-17 -2
-36 -1 -43 1 -6 3 -38 64 -70 136 l-59 131 18 40 c10 22 21 40 24 40 3 0 41
-78 83 -173z m184 149 c3 -7 4 -38 2 -67 l-3 -54 -32 45 c-18 24 -33 54 -33
67 0 19 5 23 30 23 17 0 33 -6 36 -14z m150 -125 c2 -2 37 22 78 53 82 61 102
68 92 34 -3 -13 -6 -35 -6 -49 0 -23 -24 -47 -104 -101 -5 -4 15 -39 48 -83
32 -42 55 -79 53 -82 -3 -2 -26 -1 -51 2 -44 7 -48 11 -129 119 -106 141 -99
127 -91 185 l6 50 50 -62 c27 -34 52 -64 54 -66z m-2001 -37 c-22 -42 -46 -78
-53 -81 -7 -3 -26 -2 -42 3 l-29 9 61 114 61 115 21 -43 20 -42 -39 -75z
m-382 77 c21 -31 27 -51 27 -91 0 -43 -3 -51 -16 -46 -9 3 -24 6 -35 6 -17 0
-19 8 -19 85 0 47 3 85 8 85 4 0 19 -18 35 -39z m963 -78 c6 -21 12 -23 69
-23 87 0 95 -4 95 -51 l0 -39 -92 0 c-145 0 -138 -5 -138 109 l1 96 29 -35
c17 -19 33 -45 36 -57z m947 -71 c-33 -61 -47 -78 -67 -80 -59 -7 -59 6 6 128
l61 114 21 -42 21 -43 -42 -77z m302 108 c27 -39 28 -44 22 -122 -4 -44 -9
-83 -11 -85 -3 -3 -18 -2 -35 2 -30 6 -31 8 -31 63 0 83 12 192 20 187 4 -2
19 -22 35 -45z m-1471 -8 c23 -33 26 -45 20 -81 -6 -39 -8 -41 -40 -41 l-34 0
0 69 c0 71 7 104 19 96 4 -2 20 -22 35 -43z m470 -21 c21 -31 27 -48 24 -82
-3 -44 -3 -44 -38 -41 -19 2 -36 5 -38 7 -6 6 11 164 18 160 4 -2 19 -22 34
-44z m336 -88 c0 -66 -3 -69 -47 -57 -22 6 -23 11 -23 103 l1 96 34 -40 c32
-36 35 -46 35 -102z m759 55 c26 -35 31 -51 31 -100 0 -51 -2 -58 -19 -58 -48
0 -51 7 -51 106 0 52 2 94 4 94 2 0 18 -19 35 -42z"/>
<path d="M8185 8350 c24 -27 88 -25 93 3 3 15 -5 17 -54 17 -57 0 -57 0 -39
-20z"/>
<path d="M9380 8300 c0 -31 92 -39 98 -7 3 14 -4 17 -47 17 -28 0 -51 -4 -51
-10z"/>
<path d="M6173 8419 c4 -41 10 -144 13 -229 4 -88 13 -172 20 -194 8 -22 12
-41 10 -44 -3 -2 1 -11 9 -19 8 -8 15 -20 15 -26 0 -7 -5 -6 -11 3 -8 12 -9
10 -5 -10 3 -14 21 -92 40 -175 47 -203 73 -357 87 -522 7 -76 16 -141 22
-145 6 -4 4 -12 -6 -23 -23 -22 -21 -35 3 -35 26 0 27 -41 1 -143 -20 -75 -79
-216 -104 -247 -15 -17 -39 -70 -32 -70 2 0 41 46 86 103 161 199 312 453 508
852 70 143 132 271 137 284 l10 24 31 -39 c28 -37 30 -46 37 -154 10 -175 36
-431 47 -467 14 -45 82 -147 148 -222 67 -76 208 -199 346 -301 108 -81 357
-242 363 -236 2 2 -17 30 -41 63 -106 140 -228 405 -287 627 -32 118 -37 161
-19 171 6 4 8 13 5 21 -3 9 1 14 12 14 9 0 31 9 47 21 136 93 374 170 655 213
l95 14 -70 1 c-180 3 -528 75 -591 123 -6 4 -14 5 -17 1 -4 -3 -7 -1 -7 6 0 7
-4 10 -9 7 -15 -9 -224 99 -338 175 -80 53 -143 106 -242 207 -122 124 -501
443 -501 422 0 -5 20 -73 45 -151 25 -79 44 -147 43 -151 -2 -6 -337 187 -526
304 l-35 21 6 -74z m116 -651 c12 -34 21 -67 20 -72 0 -6 -8 12 -18 39 -27 76
-33 95 -28 95 3 0 15 -28 26 -62z m981 -275 c0 -8 -13 5 -110 105 l-105 107
108 -105 c59 -57 107 -106 107 -107z m-943 135 c-3 -8 -6 -5 -6 6 -1 11 2 17
5 13 3 -3 4 -12 1 -19z m10 -40 c-3 -8 -6 -5 -6 6 -1 11 2 17 5 13 3 -3 4 -12
1 -19z m10 -40 c-3 -8 -6 -5 -6 6 -1 11 2 17 5 13 3 -3 4 -12 1 -19z m10 -50
c-3 -7 -5 -2 -5 12 0 14 2 19 5 13 2 -7 2 -19 0 -25z m10 -50 c-3 -7 -5 -2 -5
12 0 14 2 19 5 13 2 -7 2 -19 0 -25z m964 -5 c13 -16 12 -17 -3 -4 -10 7 -18
15 -18 17 0 8 8 3 21 -13z m-954 -60 c-3 -10 -5 -2 -5 17 0 19 2 27 5 18 2
-10 2 -26 0 -35z m10 -85 c-2 -13 -4 -3 -4 22 0 25 2 35 4 23 2 -13 2 -33 0
-45z m10 -220 c-2 -35 -3 -7 -3 62 0 69 1 97 3 63 2 -35 2 -91 0 -125z"/>
<path d="M5886 8275 c-4 -12 4 -15 44 -15 38 0 50 4 50 15 0 11 -12 15 -44 15
-30 0 -46 -5 -50 -15z"/>
<path d="M3516 8215 c-66 -27 -148 -91 -152 -119 -1 -10 10 -42 25 -70 16 -28
49 -90 75 -139 26 -48 52 -85 57 -81 6 3 2 19 -9 37 -11 18 -45 83 -77 145
l-57 112 24 20 c67 56 235 122 249 98 4 -7 31 -71 59 -143 29 -71 56 -134 61
-139 24 -26 13 14 -42 152 l-61 152 -47 0 c-25 0 -72 -11 -105 -25z"/>
<path d="M5953 8223 c9 -2 23 -2 30 0 6 3 -1 5 -18 5 -16 0 -22 -2 -12 -5z"/>
<path d="M10730 7461 c0 -33 -4 -61 -9 -63 -5 -1 -10 -53 -13 -115 l-4 -112
101 152 c55 84 100 153 99 155 -1 2 -31 10 -65 18 -35 8 -74 16 -86 19 -22 5
-23 2 -23 -54z"/>
<path d="M11971 7445 c-67 -84 -161 -221 -161 -236 0 -23 29 -3 67 44 23 29
69 83 103 120 57 62 61 69 58 109 l-3 43 -64 -80z"/>
<path d="M6350 6940 c0 -40 13 -53 24 -24 11 29 7 64 -9 64 -11 0 -15 -11 -15
-40z"/>
<path d="M2825 6841 l-1030 -6 -53 -29 c-99 -55 -153 -139 -160 -251 -4 -69
33 -1265 43 -1379 6 -66 38 -144 79 -193 15 -18 57 -47 94 -65 l67 -33 677 -3
677 -3 5 -52 c3 -29 21 -781 41 -1673 29 -1339 38 -1629 50 -1671 21 -69 71
-140 129 -180 97 -67 9 -63 1506 -63 l1357 0 -18 -112 c-51 -316 -78 -699 -71
-1001 l3 -117 766 2 767 3 23 120 c42 227 86 407 95 393 5 -8 7 3 3 27 -4 31
-3 36 5 20 8 -16 9 -13 5 15 -4 26 -2 31 6 20 8 -11 9 -6 5 20 -5 30 -5 31 4
12 7 -18 4 -48 -16 -124 -20 -82 -104 -485 -104 -503 0 -3 51 -5 114 -5 110 0
114 1 120 23 3 12 161 587 351 1277 190 690 347 1267 348 1282 1 14 3 25 5 23
2 -1 35 6 74 16 79 21 198 25 245 9 26 -10 33 -20 51 -78 321 -1057 516 -1796
632 -2397 11 -60 23 -120 26 -132 4 -22 8 -23 134 -23 72 0 130 2 130 5 0 15
-64 333 -85 422 -16 67 -22 110 -16 125 9 26 19 -12 86 -337 l43 -210 830 -2
830 -3 -1 60 c-1 33 -4 60 -7 60 -3 0 -6 37 -6 83 -2 146 -64 555 -130 867
-158 741 -395 1414 -735 2087 -65 128 -114 235 -109 238 4 3 13 28 20 55 10
40 10 57 0 81 -14 33 -95 99 -182 148 l-57 32 -3 77 -3 77 -44 -77 -45 -78
-90 -29 c-229 -75 -509 -130 -826 -163 -185 -19 -714 -16 -915 6 -150 15 -397
49 -464 62 -25 5 -30 3 -34 -17 -2 -13 -5 17 -5 66 -1 50 2 95 6 101 5 8 43 6
137 -7 577 -82 1203 -70 1758 31 170 32 282 57 257 59 -8 0 -96 -6 -195 -14
-634 -51 -1395 -43 -1843 20 -58 8 -108 15 -110 15 -6 0 5 360 10 365 2 2 48
-3 103 -11 115 -17 394 -30 420 -20 16 6 16 9 -5 31 -13 14 -30 25 -37 25 -8
0 -12 4 -9 8 7 11 -192 122 -347 196 l-118 55 2 228 c1 153 -2 237 -10 256
-14 37 -14 45 2 25 15 -19 146 -69 270 -103 239 -65 519 -88 807 -66 530 40
917 164 1135 362 l52 49 99 -121 c55 -66 102 -127 106 -134 11 -19 -94 -94
-222 -159 -280 -143 -598 -221 -1155 -282 -39 -5 -58 -10 -42 -12 15 -2 27 -8
27 -14 0 -8 75 -9 248 -5 240 6 379 19 531 52 41 8 76 13 78 11 4 -4 -46 -16
-129 -31 l-38 -7 0 -98 0 -98 66 -7 c124 -14 581 28 666 60 17 7 70 -69 94
-137 12 -35 11 -40 -22 -103 -19 -36 -32 -65 -30 -65 9 0 86 136 86 152 0 21
-53 121 -150 283 -117 195 -126 216 -112 262 6 21 38 72 72 113 33 41 60 84
60 95 0 26 -26 67 -100 161 -34 42 -73 99 -87 127 -22 45 -25 59 -19 117 8 87
82 542 151 929 30 173 54 316 52 318 -2 2 -50 -207 -107 -464 -82 -375 -107
-472 -124 -490 -36 -37 -241 -179 -382 -265 l-134 -81 0 -84 c0 -67 -3 -83
-15 -83 -8 0 -15 -9 -15 -20 0 -25 18 -22 130 22 115 45 207 96 299 167 l84
63 -6 -38 c-5 -28 -1 -52 14 -84 25 -55 32 -49 -158 -142 -228 -111 -480 -186
-738 -219 -143 -18 -413 -6 -563 25 -299 63 -617 208 -870 395 -45 34 -84 61
-87 61 -3 0 -5 -49 -5 -109 0 -101 2 -110 23 -125 12 -9 2 -6 -23 6 l-45 23
-1787 3 c-1691 2 -1788 3 -1788 20 0 9 9 314 21 676 19 617 19 662 4 710 -32
97 -99 166 -195 202 -59 21 -63 22 -1285 15z m1307 -44 c92 -45 155 -133 165
-231 5 -47 -18 -805 -33 -1108 l-7 -128 -441 0 c-340 0 -445 -3 -455 -12 -11
-10 -14 -10 -18 0 -4 9 -59 12 -229 12 -123 0 -224 -4 -224 -8 0 -9 160 -273
207 -344 38 -55 45 -68 39 -68 -2 0 -48 67 -102 150 l-97 150 -647 0 -646 0
-18 473 c-31 838 -32 899 -11 953 34 89 123 164 218 184 23 5 537 8 1142 7
l1100 -2 57 -28z m3839 -1644 c13 -16 12 -17 -3 -4 -10 7 -18 15 -18 17 0 8 8
3 21 -13z m80 -85 c15 -28 5 -21 -21 15 -15 20 -17 27 -6 18 9 -8 22 -23 27
-33z m-4770 -355 c13 -16 12 -17 -3 -4 -17 13 -22 21 -14 21 2 0 10 -8 17 -17z
m7089 12 c0 -2 -10 -9 -22 -15 -22 -11 -22 -10 -4 4 21 17 26 19 26 11z
m-7059 -52 c13 -16 12 -17 -3 -4 -10 7 -18 15 -18 17 0 8 8 3 21 -13z m3966
-15 c-3 -8 -6 -5 -6 6 -1 11 2 17 5 13 3 -3 4 -12 1 -19z m2973 2 c-8 -5 -19
-10 -25 -10 -5 0 -3 5 5 10 8 5 20 10 25 10 6 0 3 -5 -5 -10z m-6909 -27 c13
-16 12 -17 -3 -4 -10 7 -18 15 -18 17 0 8 8 3 21 -13z m6869 13 c0 -6 -121
-46 -134 -45 -6 0 18 11 54 24 68 25 80 28 80 21z m-6839 -53 c13 -16 12 -17
-3 -4 -17 13 -22 21 -14 21 2 0 10 -8 17 -17z m6686 1 c-3 -3 -12 -4 -19 -1
-8 3 -5 6 6 6 11 1 17 -2 13 -5z m-6652 -44 c10 -11 16 -20 13 -20 -3 0 -13 9
-23 20 -10 11 -16 20 -13 20 3 0 13 -9 23 -20z m3035 -60 l0 -50 -1062 2
-1063 3 -3 33 c-2 19 -1 40 2 48 5 12 164 14 1066 14 l1060 0 0 -50z m-2995
10 c10 -11 16 -20 13 -20 -3 0 -13 9 -23 20 -10 11 -16 20 -13 20 3 0 13 -9
23 -20z m40 -50 c10 -11 16 -20 13 -20 -3 0 -13 9 -23 20 -10 11 -16 20 -13
20 3 0 13 -9 23 -20z m-228 -72 c-2 -18 -4 -6 -4 27 0 33 2 48 4 33 2 -15 2
-42 0 -60z m273 17 c13 -14 21 -25 18 -25 -2 0 -15 11 -28 25 -13 14 -21 25
-18 25 2 0 15 -11 28 -25z m4573 -47 c9 -6 9 -8 0 -8 -6 0 -14 -17 -16 -37 -2
-21 -4 -2 -4 42 0 44 2 64 4 45 3 -19 10 -38 16 -42z m-4517 -20 l29 -33 -32
29 c-31 28 -38 36 -30 36 2 0 16 -15 33 -32z m4561 6 c-3 -3 -12 -4 -19 -1 -8
3 -5 6 6 6 11 1 17 -2 13 -5z m73 -14 c20 -6 21 -8 5 -8 -11 0 -31 4 -45 8
-20 6 -21 8 -5 8 11 0 31 -4 45 -8z m-2840 -50 l0 -50 -532 2 -533 3 -3 33
c-7 66 -44 62 538 62 l530 0 0 -50z m1953 43 c-13 -2 -35 -2 -50 0 -16 2 -5 4
22 4 28 0 40 -2 28 -4z m950 -10 c-7 -2 -19 -2 -25 0 -7 3 -2 5 12 5 14 0 19
-2 13 -5z m44 -9 c-3 -3 -12 -4 -19 -1 -8 3 -5 6 6 6 11 1 17 -2 13 -5z
m-4378 -354 c81 -80 202 -193 269 -252 l122 -108 945 0 945 0 0 -45 0 -45
-887 -2 -886 -3 55 -42 55 -43 611 0 612 0 0 -50 0 -50 -542 -2 -542 -3 55
-37 c54 -38 55 -38 152 -38 l97 0 0 -49 c0 -43 -3 -49 -22 -52 -13 -2 -171 -3
-351 -1 l-328 3 3 47 3 47 239 5 240 5 -55 38 -54 37 -188 0 -187 0 0 50 0 50
122 0 121 0 -57 45 c-55 43 -62 45 -123 45 l-65 0 4 51 3 51 -105 91 c-129
113 -429 412 -529 527 -61 70 -56 66 24 -20 54 -58 164 -170 244 -250z m4424
343 c-7 -2 -19 -2 -25 0 -7 3 -2 5 12 5 14 0 19 -2 13 -5z m-1146 -35 c-3 -7
-5 -2 -5 12 0 14 2 19 5 13 2 -7 2 -19 0 -25z m1196 25 c-7 -2 -19 -2 -25 0
-7 3 -2 5 12 5 14 0 19 -2 13 -5z m60 -10 c-7 -2 -19 -2 -25 0 -7 3 -2 5 12 5
14 0 19 -2 13 -5z m50 -10 c-7 -2 -19 -2 -25 0 -7 3 -2 5 12 5 14 0 19 -2 13
-5z m-3153 -163 l0 -50 -535 0 -535 0 0 43 c0 24 3 47 7 50 3 4 244 7 535 7
l528 0 0 -50z m960 0 l0 -50 -425 0 -425 0 0 43 c0 24 3 47 7 50 3 4 195 7
425 7 l418 0 0 -50z m-3073 -157 c-2 -21 -4 -4 -4 37 0 41 2 58 4 38 2 -21 2
-55 0 -75z m3860 15 c-3 -8 -6 -5 -6 6 -1 11 2 17 5 13 3 -3 4 -12 1 -19z
m-1097 -48 l0 -50 -857 2 -858 3 -3 48 -3 47 860 0 861 0 0 -50z m1130 5 c13
-14 21 -25 18 -25 -2 0 -15 11 -28 25 -13 14 -21 25 -18 25 2 0 15 -11 28 -25z
m-2230 -185 l0 -50 -307 2 -308 3 -3 33 c-6 65 -22 62 313 62 l305 0 0 -50z
m-1653 -227 c-2 -27 -3 -5 -3 47 0 52 1 74 3 48 2 -27 2 -69 0 -95z m3783 134
c0 -2 -17 -19 -37 -38 l-38 -34 34 38 c33 34 41 42 41 34z m-127 -132 c-3 -9
-8 -14 -10 -11 -3 3 -2 9 2 15 9 16 15 13 8 -4z m2964 -1 c-3 -3 -12 -4 -19
-1 -8 3 -5 6 6 6 11 1 17 -2 13 -5z m-50 -10 c-3 -3 -12 -4 -19 -1 -8 3 -5 6
6 6 11 1 17 -2 13 -5z m-120 -20 c-3 -3 -12 -4 -19 -1 -8 3 -5 6 6 6 11 1 17
-2 13 -5z m-2717 -29 c0 -2 -6 -7 -12 -11 -7 -4 -10 -4 -6 1 4 4 0 14 -10 22
-15 13 -15 13 6 3 12 -6 22 -13 22 -15z m2657 19 c-3 -3 -12 -4 -19 -1 -8 3
-5 6 6 6 11 1 17 -2 13 -5z m-1530 -10 c-3 -3 -12 -4 -19 -1 -8 3 -5 6 6 6 11
1 17 -2 13 -5z m1450 0 c-3 -3 -12 -4 -19 -1 -8 3 -5 6 6 6 11 1 17 -2 13 -5z
m-1374 -11 c-7 -2 -19 -2 -25 0 -7 3 -2 5 12 5 14 0 19 -2 13 -5z m1290 0 c-7
-2 -19 -2 -25 0 -7 3 -2 5 12 5 14 0 19 -2 13 -5z m-1210 -10 c-7 -2 -19 -2
-25 0 -7 3 -2 5 12 5 14 0 19 -2 13 -5z m1120 0 c-7 -2 -21 -2 -30 0 -10 3 -4
5 12 5 17 0 24 -2 18 -5z m-1020 -10 c-7 -2 -19 -2 -25 0 -7 3 -2 5 12 5 14 0
19 -2 13 -5z m910 0 c-7 -2 -21 -2 -30 0 -10 3 -4 5 12 5 17 0 24 -2 18 -5z
m-775 -10 c-10 -2 -26 -2 -35 0 -10 3 -2 5 17 5 19 0 27 -2 18 -5z m635 0
c-13 -2 -33 -2 -45 0 -13 2 -3 4 22 4 25 0 35 -2 23 -4z m-260 -10 c-40 -2
-106 -2 -145 0 -40 1 -8 3 72 3 80 0 112 -2 73 -3z m-1428 -173 c3 -6 -1 -7
-9 -4 -18 7 -21 14 -7 14 6 0 13 -4 16 -10z m-1367 -52 l3 -48 -530 0 -531 0
0 50 0 50 528 -2 527 -3 3 -47z m-2821 -110 c-2 -29 -3 -6 -3 52 0 58 1 81 3
53 2 -29 2 -77 0 -105z m1754 12 l62 -40 139 0 138 0 0 -49 0 -50 -51 -3 -51
-3 70 -37 69 -38 217 0 216 0 0 -50 0 -50 -117 0 -118 -1 75 -39 75 -39 173
-1 172 0 0 -49 0 -50 -51 -3 -51 -3 124 -48 c176 -70 439 -158 449 -151 5 3 9
0 9 -5 0 -6 -4 -11 -9 -11 -17 0 -338 112 -471 165 l-139 55 -460 0 -461 0 0
50 0 50 348 0 347 1 -75 39 -75 39 -427 1 -428 0 0 50 0 50 328 0 327 0 -70
40 -70 39 -472 1 -473 0 0 50 0 50 388 0 387 1 -54 34 c-56 36 -68 45 -58 45
3 0 34 -18 68 -40z m-411 -270 l0 -50 -160 0 -160 0 0 50 0 50 160 0 160 0 0
-50z m-1333 -182 c-2 -35 -3 -9 -3 57 0 66 1 94 3 63 2 -32 2 -86 0 -120z
m4603 127 c13 -14 21 -25 18 -25 -2 0 -15 11 -28 25 -13 14 -21 25 -18 25 2 0
15 -11 28 -25z m-2890 -125 l0 -50 -350 0 -350 0 0 50 0 50 350 0 350 0 0 -50z
m370 -185 l0 -55 -535 0 -535 0 0 48 c0 27 3 52 7 55 3 4 244 7 535 7 l528 0
0 -55z m3190 13 c0 -18 -2 -20 -9 -8 -6 8 -7 18 -5 22 9 14 14 9 14 -14z
m-583 -30 c-3 -8 -6 -5 -6 6 -1 11 2 17 5 13 3 -3 4 -12 1 -19z m-4177 -63
c408 -52 460 -56 633 -55 l187 1 0 -26 c0 -17 5 -25 18 -25 9 0 34 -3 55 -6
36 -6 37 -6 37 25 l0 31 555 0 555 0 0 -50 0 -50 -382 -1 -383 -1 695 -89
c534 -68 696 -86 703 -76 10 14 11 20 -47 -209 -25 -94 -60 -249 -80 -345 -20
-96 -38 -184 -41 -197 l-5 -22 -1378 2 -1377 3 -57 28 c-62 31 -116 84 -149
149 -27 53 -34 157 -44 637 l-7 344 34 -6 c18 -4 233 -32 478 -62z m2759 -64
c-7 -23 -14 -39 -16 -37 -3 2 1 23 8 45 7 23 14 39 16 37 3 -2 -1 -23 -8 -45z
m1923 -17 c-8 -15 -10 -15 -15 0 -4 11 -3 15 4 10 8 -4 9 1 5 17 -6 20 -5 21
4 7 7 -11 8 -24 2 -34z m-495 -236 c-1 -51 -3 -12 -3 87 0 99 2 141 3 93 2
-48 2 -129 0 -180z m1336 177 c-3 -9 -8 -14 -10 -11 -3 3 -2 9 2 15 9 16 15
13 8 -4z m-2799 -39 c-3 -15 -8 -25 -11 -23 -2 3 -1 17 3 31 3 15 8 25 11 23
2 -3 1 -17 -3 -31z m1916 -1 c0 -5 -5 -3 -10 5 -5 8 -10 20 -10 25 0 6 5 3 10
-5 5 -8 10 -19 10 -25z m910 -32 c-9 -15 -10 -14 -4 6 4 16 3 21 -5 17 -7 -5
-8 -1 -4 10 5 15 7 15 15 0 6 -10 5 -23 -2 -33z m-2856 -67 c-3 -15 -8 -25
-11 -23 -2 3 -1 17 3 31 3 15 8 25 11 23 2 -3 1 -17 -3 -31z m2900 -21 c-6
-15 -8 -15 -16 -2 -4 8 -5 23 -2 32 6 15 8 15 16 2 4 -8 5 -23 2 -32z m-1014
-20 c0 -5 -5 -3 -10 5 -8 12 -10 12 -10 1 0 -8 -2 -12 -5 -9 -3 3 -2 13 1 22
5 14 9 15 15 4 5 -7 9 -17 9 -23z m1050 -40 c0 -5 -5 -3 -10 5 -8 12 -10 12
-10 1 0 -8 -2 -12 -5 -9 -3 3 -2 13 1 22 5 14 9 15 15 4 5 -7 9 -17 9 -23z
m-1080 -30 c0 -5 -5 -3 -10 5 -5 8 -10 20 -10 25 0 6 5 3 10 -5 5 -8 10 -19
10 -25z m1091 -32 c-12 -20 -14 -14 -5 12 4 9 9 14 11 11 3 -2 0 -13 -6 -23z
m-1111 -18 c0 -5 -5 -3 -10 5 -8 12 -10 12 -10 1 0 -8 -2 -12 -5 -9 -3 3 -2
13 1 22 5 14 9 15 15 4 5 -7 9 -17 9 -23z m1150 -40 c0 -5 -5 -3 -10 5 -8 12
-10 12 -10 1 0 -8 -2 -12 -5 -9 -3 3 -2 13 1 22 5 14 9 15 15 4 5 -7 9 -17 9
-23z m-1503 -22 c-3 -10 -5 -2 -5 17 0 19 2 27 5 18 2 -10 2 -26 0 -35z m1513
-24 c0 8 2 12 5 9 3 -3 2 -13 -1 -22 -5 -14 -9 -15 -15 -4 -5 7 -9 18 -9 23 0
6 5 3 10 -5 8 -12 10 -12 10 -1z m-1519 -65 c-5 -16 -10 -21 -10 -12 -1 18 10
51 15 45 2 -1 -1 -16 -5 -33z m299 1 c0 -5 -5 -3 -10 5 -5 8 -10 20 -10 25 0
6 5 3 10 -5 5 -8 10 -19 10 -25z m-20 -50 c0 -5 -5 -3 -10 5 -5 8 -10 20 -10
25 0 6 5 3 10 -5 5 -8 10 -19 10 -25z m1291 -32 c-12 -20 -14 -14 -5 12 4 9 9
14 11 11 3 -2 0 -13 -6 -23z m-1583 -14 c-3 -8 -7 -3 -11 10 -4 17 -3 21 5 13
5 -5 8 -16 6 -23z m262 -34 c0 -5 -5 -3 -10 5 -5 8 -10 20 -10 25 0 6 5 3 10
-5 5 -8 10 -19 10 -25z m1340 14 c0 8 2 12 5 9 3 -3 2 -13 -1 -22 -5 -14 -9
-15 -15 -4 -5 7 -9 18 -9 23 0 6 5 3 10 -5 8 -12 10 -12 10 -1z m30 -54 c0 -5
-5 -3 -10 5 -8 12 -10 12 -10 1 0 -8 -2 -12 -5 -9 -3 3 -2 13 1 22 5 14 9 15
15 4 5 -7 9 -17 9 -23z m-1643 -7 c-3 -8 -6 -5 -6 6 -1 11 2 17 5 13 3 -3 4
-12 1 -19z m243 -33 c0 -5 -5 -3 -10 5 -5 8 -10 20 -10 25 0 6 5 3 10 -5 5 -8
10 -19 10 -25z m1400 14 c0 8 2 12 5 9 3 -3 2 -13 -1 -22 -5 -14 -9 -15 -15
-4 -5 7 -9 18 -9 23 0 6 5 3 10 -5 8 -12 10 -12 10 -1z m-1410 -44 c0 -5 -5
-3 -10 5 -8 12 -10 12 -10 1 0 -8 -2 -12 -5 -9 -3 3 -2 13 1 22 5 14 9 15 15
4 5 -7 9 -17 9 -23z m1421 -2 c-12 -20 -14 -14 -5 12 4 9 9 14 11 11 3 -2 0
-13 -6 -23z m-1664 -5 c-3 -8 -6 -5 -6 6 -1 11 2 17 5 13 3 -3 4 -12 1 -19z
m-1530 -40 c-3 -8 -6 -5 -6 6 -1 11 2 17 5 13 3 -3 4 -12 1 -19z m1520 -20
c-3 -8 -6 -5 -6 6 -1 11 2 17 5 13 3 -3 4 -12 1 -19z m223 11 c0 8 2 12 5 9 3
-3 2 -13 -1 -22 -5 -14 -9 -15 -15 -4 -5 7 -9 18 -9 23 0 6 5 3 10 -5 8 -12
10 -12 10 -1z m1480 -10 c0 8 2 12 5 9 3 -3 2 -13 -1 -22 -5 -14 -9 -15 -15
-4 -5 7 -9 18 -9 23 0 6 5 3 10 -5 8 -12 10 -12 10 -1z m-3233 -31 c-3 -8 -6
-5 -6 6 -1 11 2 17 5 13 3 -3 4 -12 1 -19z m1743 -13 c0 -5 -5 -3 -10 5 -5 8
-10 20 -10 25 0 6 5 3 10 -5 5 -8 10 -19 10 -25z m1501 -2 c-12 -20 -14 -14
-5 12 4 9 9 14 11 11 3 -2 0 -13 -6 -23z m-1724 -15 c-3 -8 -6 -5 -6 6 -1 11
2 17 5 13 3 -3 4 -12 1 -19z m213 -13 c0 -5 -5 -3 -10 5 -5 8 -10 20 -10 25 0
6 5 3 10 -5 5 -8 10 -19 10 -25z m1521 -2 c-12 -20 -14 -14 -5 12 4 9 9 14 11
11 3 -2 0 -13 -6 -23z m-1531 -28 c0 -5 -5 -3 -10 5 -5 8 -10 20 -10 25 0 6 5
3 10 -5 5 -8 10 -19 10 -25z m1541 -2 c-12 -20 -14 -14 -5 12 4 9 9 14 11 11
3 -2 0 -13 -6 -23z m-1551 -28 c0 -5 -5 -3 -10 5 -5 8 -10 20 -10 25 0 6 5 3
10 -5 5 -8 10 -19 10 -25z m-1733 3 c-3 -8 -6 -5 -6 6 -1 11 2 17 5 13 3 -3 4
-12 1 -19z m1712 -63 c0 -5 -4 -3 -9 5 -5 8 -9 22 -9 30 0 16 17 -16 18 -35z
m-1722 13 c-3 -8 -6 -5 -6 6 -1 11 2 17 5 13 3 -3 4 -12 1 -19z m1713 -43 c0
-5 -5 -3 -10 5 -5 8 -10 20 -10 25 0 6 5 3 10 -5 5 -8 10 -19 10 -25z m-10
-30 c0 -5 -5 -3 -10 5 -5 8 -10 20 -10 25 0 6 5 3 10 -5 5 -8 10 -19 10 -25z
m-10 -30 c0 -5 -5 -3 -10 5 -5 8 -10 20 -10 25 0 6 5 3 10 -5 5 -8 10 -19 10
-25z m-10 -30 c0 -5 -5 -3 -10 5 -5 8 -10 20 -10 25 0 6 5 3 10 -5 5 -8 10
-19 10 -25z m1680 -2 c-11 -17 -11 -17 -6 0 3 10 6 24 7 30 0 9 2 9 5 0 3 -7
0 -20 -6 -30z m-1691 -33 c0 -10 -3 -8 -9 5 -12 27 -12 43 0 25 5 -8 9 -22 9
-30z m1702 3 c-12 -20 -14 -14 -5 12 4 9 9 14 11 11 3 -2 0 -13 -6 -23z m13
-30 c-4 -23 -3 -25 6 -13 10 13 11 12 6 -3 -3 -10 -6 -24 -7 -30 0 -7 -5 -1
-10 12 -5 13 -7 32 -4 42 10 29 16 22 9 -8z m-1735 -38 c0 -5 -4 -3 -9 5 -5 8
-9 22 -9 30 0 16 17 -16 18 -35z m-15 -52 c-7 -25 -8 -25 -15 -8 -11 29 -10
42 2 25 8 -11 9 -8 5 15 -5 24 -4 26 4 13 6 -10 7 -30 4 -45z m1776 -10 c-11
-17 -11 -17 -6 0 3 10 6 24 7 30 0 9 2 9 5 0 3 -7 0 -20 -6 -30z m-1791 -38
c0 -5 -4 -3 -9 5 -5 8 -9 22 -9 30 0 16 17 -16 18 -35z m1802 4 c-5 -13 -10
-19 -10 -12 -1 15 10 45 15 40 3 -2 0 -15 -5 -28z m-1812 -39 c0 -10 -3 -8 -9
5 -12 27 -12 43 0 25 5 -8 9 -22 9 -30z m1835 -24 c-3 -15 -8 -25 -11 -23 -2
3 -1 17 3 31 3 15 8 25 11 23 2 -3 1 -17 -3 -31z m-1855 -46 c0 -9 -4 -8 -9 5
-5 11 -9 27 -9 35 0 9 4 8 9 -5 5 -11 9 -27 9 -35z m3508 28 c-3 -8 -6 -5 -6
6 -1 11 2 17 5 13 3 -3 4 -12 1 -19z m-1637 -57 c-9 -23 -9 -23 -4 9 4 28 3
32 -6 20 -10 -13 -11 -12 -6 3 3 10 6 24 7 30 0 7 5 1 10 -12 6 -16 6 -33 -1
-50z m-3523 17 c-3 -8 -6 -5 -6 6 -1 11 2 17 5 13 3 -3 4 -12 1 -19z m1636
-46 c-6 -24 -7 -25 -14 -7 -11 29 -10 42 2 25 8 -11 9 -6 5 20 -5 30 -5 31 4
12 5 -13 7 -35 3 -50z m1907 -41 c-9 -23 -9 -23 -4 9 4 28 3 32 -6 20 -10 -13
-11 -12 -6 3 3 10 6 24 7 30 0 7 5 1 10 -12 6 -16 6 -33 -1 -50z m1627 37 c-3
-8 -6 -5 -6 6 -1 11 2 17 5 13 3 -3 4 -12 1 -19z m-3548 -48 c0 -9 -4 -8 -9 5
-5 11 -9 27 -9 35 0 9 4 8 9 -5 5 -11 9 -27 9 -35z m-10 -40 c0 -9 -4 -8 -9 5
-5 11 -9 27 -9 35 0 9 4 8 9 -5 5 -11 9 -27 9 -35z m1945 16 c-3 -15 -8 -25
-11 -23 -2 3 -1 17 3 31 3 15 8 25 11 23 2 -3 1 -17 -3 -31z m-3567 -58 c-2
-13 -4 -3 -4 22 0 25 2 35 4 23 2 -13 2 -33 0 -45z m1612 2 c0 -9 -4 -8 -9 5
-5 11 -9 27 -9 35 0 9 4 8 9 -5 5 -11 9 -27 9 -35z m1965 16 c-3 -15 -8 -25
-11 -23 -2 3 -1 17 3 31 3 15 8 25 11 23 2 -3 1 -17 -3 -31z m1613 -8 c-3 -7
-5 -2 -5 12 0 14 2 19 5 13 2 -7 2 -19 0 -25z m-1603 -32 c-3 -15 -8 -25 -11
-23 -2 3 -1 17 3 31 3 15 8 25 11 23 2 -3 1 -17 -3 -31z m10 -40 c-3 -15 -8
-25 -11 -23 -2 3 -1 17 3 31 3 15 8 25 11 23 2 -3 1 -17 -3 -31z m1603 -188
c-2 -18 -4 -4 -4 32 0 36 2 50 4 33 2 -18 2 -48 0 -65z m-5200 -35 c-2 -16 -4
-3 -4 27 0 30 2 43 4 28 2 -16 2 -40 0 -55z m5360 -105 c-3 -8 -6 -5 -6 6 -1
11 2 17 5 13 3 -3 4 -12 1 -19z m-5350 -30 c-3 -7 -5 -2 -5 12 0 14 2 19 5 13
2 -7 2 -19 0 -25z m5180 -25 c-3 -10 -5 -2 -5 17 0 19 2 27 5 18 2 -10 2 -26
0 -35z m180 -5 c-3 -8 -6 -5 -6 6 -1 11 2 17 5 13 3 -3 4 -12 1 -19z m-5350
-50 c-3 -8 -6 -5 -6 6 -1 11 2 17 5 13 3 -3 4 -12 1 -19z m5160 -30 c-3 -8 -6
-5 -6 6 -1 11 2 17 5 13 3 -3 4 -12 1 -19z m-5150 -40 c-3 -8 -6 -5 -6 6 -1
11 2 17 5 13 3 -3 4 -12 1 -19z m5140 -30 c-3 -8 -6 -5 -6 6 -1 11 2 17 5 13
3 -3 4 -12 1 -19z m-5130 -20 c-3 -8 -6 -5 -6 6 -1 11 2 17 5 13 3 -3 4 -12 1
-19z"/>
<path d="M6181 6497 l-34 -42 38 37 c22 21 37 39 34 42 -2 2 -19 -14 -38 -37z"/>
<path d="M11311 6235 l21 -35 89 0 89 0 0 35 0 35 -110 0 -109 0 20 -35z"/>
<path d="M8310 5925 l0 -85 38 -23 c155 -99 346 -190 524 -252 94 -33 328 -96
353 -95 5 1 -26 16 -70 34 -271 111 -538 265 -757 437 l-88 69 0 -85z"/>
<path d="M4735 5769 c-261 -219 -269 -225 -243 -216 41 14 511 418 486 417 -2
0 -111 -90 -243 -201z"/>
<path d="M11161 5403 c7 -22 280 -355 286 -349 3 3 -53 79 -126 169 -126 158
-169 207 -160 180z"/>
<path d="M13004 5253 c14 -117 11 -114 58 -97 22 8 56 14 74 14 23 0 34 5 34
14 0 8 2 20 5 28 5 13 -49 45 -144 85 l-33 14 6 -58z"/>
<path d="M13403 5198 l-40 -93 27 -32 c15 -17 36 -45 46 -61 l17 -30 69 61
c56 49 71 58 78 47 9 -14 14 -36 11 -53 0 -4 10 -58 23 -119 14 -62 23 -115
20 -119 -2 -4 -32 -24 -67 -45 l-64 -38 -11 -105 c-8 -76 -8 -108 0 -112 6 -4
35 -10 65 -14 29 -3 53 -10 53 -15 0 -12 -117 -330 -124 -337 -3 -3 -32 8 -65
26 -57 30 -60 31 -66 12 -3 -11 -26 -48 -51 -81 -24 -33 -44 -68 -44 -78 0
-27 42 -146 54 -154 7 -5 7 -8 -2 -8 -7 0 -49 -27 -93 -60 -43 -34 -79 -59
-79 -56 0 3 34 31 76 63 71 53 75 59 70 87 -4 16 -7 31 -9 32 -5 5 -861 233
-864 230 -4 -4 34 -192 48 -232 10 -31 10 -31 110 -41 54 -6 102 -12 105 -15
2 -3 -11 -40 -30 -82 l-35 -77 22 -8 c12 -5 57 -23 100 -40 43 -17 83 -29 88
-26 5 4 9 2 9 -4 0 -5 68 -32 152 -60 164 -55 162 -55 173 9 11 65 13 66 119
30 l97 -32 115 87 c63 48 114 92 114 99 0 7 -31 49 -70 94 -66 76 -82 102 -61
102 5 0 12 -10 15 -22 3 -13 31 -50 61 -83 l55 -60 -24 67 c-13 37 -20 69 -16
70 17 7 79 101 74 110 -4 7 -2 8 4 4 7 -4 12 -2 12 5 0 7 11 9 33 5 17 -3 50
-8 73 -12 l41 -6 62 167 c34 91 59 170 57 174 -2 3 -32 20 -66 36 -41 19 -59
33 -55 43 3 7 5 46 5 85 l0 72 52 30 c84 49 96 61 91 90 -3 13 -10 22 -15 19
-6 -4 -8 5 -3 25 4 21 3 31 -5 31 -8 0 -10 9 -6 24 3 14 2 27 -3 30 -5 3 -12
33 -16 65 -4 33 -12 66 -18 74 -10 12 -167 67 -191 67 -3 0 -14 -17 -25 -37
-11 -21 -20 -34 -21 -30 0 10 30 70 39 77 17 13 54 111 45 119 -5 5 -69 28
-143 51 -74 23 -140 44 -146 46 -6 3 -28 -34 -52 -88z m404 -635 c-3 -10 -5
-2 -5 17 0 19 2 27 5 18 2 -10 2 -26 0 -35z m-10 -115 c-3 -8 -6 -5 -6 6 -1
11 2 17 5 13 3 -3 4 -12 1 -19z m-1167 -450 c9 -20 9 -20 -2 -6 -12 16 -17 14
-58 -25 l-45 -42 45 48 c24 26 45 47 47 47 1 0 7 -10 13 -22z m795 -28 c13 -5
14 -9 5 -9 -8 0 -24 4 -35 9 -13 5 -14 9 -5 9 8 0 24 -4 35 -9z m-745 -42 c19
-24 26 -37 17 -29 -19 15 -61 71 -54 71 2 0 19 -19 37 -42z m-160 -2 c0 -2 -8
-10 -17 -17 -16 -13 -17 -12 -4 4 13 16 21 21 21 13z m453 -103 c-7 -2 -19 -2
-25 0 -7 3 -2 5 12 5 14 0 19 -2 13 -5z m-70 -23 c-3 -12 -8 -19 -11 -16 -5 6
5 36 12 36 2 0 2 -9 -1 -20z m-26 -82 c-3 -8 -6 -5 -6 6 -1 11 2 17 5 13 3 -3
4 -12 1 -19z m273 8 c0 -2 -8 -10 -17 -17 -16 -13 -17 -12 -4 4 13 16 21 21
21 13z m-52 -34 c15 12 16 11 3 -4 -20 -26 -31 -22 -30 10 2 24 2 24 6 4 4
-20 7 -21 21 -10z"/>
<path d="M15594 5161 c-68 -31 -94 -114 -54 -178 53 -87 187 -80 226 12 19 46
18 74 -6 112 -39 64 -101 84 -166 54z"/>
<path d="M13060 4841 c-100 -31 -194 -135 -242 -268 -26 -72 -36 -224 -18
-288 16 -57 70 -120 116 -135 45 -15 107 -6 152 22 34 21 34 22 29 77 -13 128
44 300 131 393 50 54 51 76 5 136 -48 63 -105 83 -173 63z"/>
<path d="M14957 4569 c-152 -36 -278 -180 -293 -334 -8 -90 53 -1773 67 -1820
38 -133 143 -236 275 -270 54 -14 216 -15 1395 -13 l1334 3 57 23 c102 41 195
146 230 257 15 47 67 1786 56 1848 -23 124 -119 242 -235 289 l-58 23 -1395 2
c-789 0 -1411 -3 -1433 -8z m2895 -41 c113 -53 199 -166 213 -281 3 -28 -5
-417 -19 -864 -14 -447 -27 -836 -27 -865 -1 -29 -4 -41 -6 -25 l-4 27 -1634
0 -1634 0 -4 -22 c-2 -13 -5 6 -6 42 0 36 -13 398 -27 805 -14 407 -24 787
-22 845 5 123 23 173 89 245 55 60 88 82 152 106 50 18 102 18 1462 16 l1410
-2 57 -27z m-3105 -2100 c-3 -7 -5 -2 -5 12 0 14 2 19 5 13 2 -7 2 -19 0 -25z
m3260 0 c-3 -8 -6 -5 -6 6 -1 11 2 17 5 13 3 -3 4 -12 1 -19z m-17 -56 c0 -5
-7 -17 -15 -28 -14 -18 -14 -17 -4 9 12 27 19 34 19 19z m-3179 -69 c13 -16
12 -17 -3 -4 -10 7 -18 15 -18 17 0 8 8 3 21 -13z m3129 -16 c0 -2 -15 -16
-32 -33 l-33 -29 29 33 c28 30 36 37 36 29z m-3090 -32 c13 -14 21 -25 18 -25
-2 0 -15 11 -28 25 -13 14 -21 25 -18 25 2 0 15 -11 28 -25z m213 -102 c-7 -2
-19 -2 -25 0 -7 3 -2 5 12 5 14 0 19 -2 13 -5z m2650 0 c-7 -2 -19 -2 -25 0
-7 3 -2 5 12 5 14 0 19 -2 13 -5z"/>
<path d="M15180 3185 l0 -265 1160 0 1160 0 0 265 0 265 -528 0 -529 0 -144
-91 c-79 -50 -150 -94 -156 -96 -10 -4 -13 18 -13 91 l0 96 -475 0 -475 0 0
-265z"/>
<path d="M15180 2600 l0 -60 1160 0 1160 0 0 60 0 60 -1160 0 -1160 0 0 -60z"/>
<path d="M1914 3841 c-68 -29 -86 -126 -35 -183 26 -29 36 -33 79 -33 57 0 86
20 109 73 17 41 5 87 -31 121 -26 25 -89 36 -122 22z"/>
<path d="M2330 2875 l-103 -135 -31 23 c-89 68 -244 177 -250 177 -17 0 12
-24 139 -115 l135 -97 -97 -126 c-53 -70 -101 -133 -106 -139 -6 -8 -6 -13 0
-13 6 0 56 61 113 134 l102 135 111 -81 c62 -45 124 -91 139 -102 15 -11 30
-17 34 -14 3 3 -58 52 -135 108 l-140 102 78 101 c124 162 134 177 124 177 -6
0 -56 -61 -113 -135z"/>
<path d="M605 2706 l-50 -43 27 -34 c15 -19 69 -78 120 -131 l93 -98 44 50 43
51 -93 102 c-51 56 -102 112 -114 125 l-20 22 -50 -44z"/>
<path d="M14180 2401 c-25 -16 -100 -61 -168 -100 l-123 -72 48 -89 c26 -50
51 -90 55 -90 5 0 323 222 341 239 8 8 -90 142 -102 140 -3 0 -26 -13 -51 -28z"/>
<path d="M14100 1857 c-140 -191 -144 -197 -132 -197 4 0 42 46 83 103 41 56
101 137 132 179 31 42 54 79 49 81 -4 3 -63 -72 -132 -166z"/>
</g>
</svg>
